<?xml version="1.0" standalone="no"?>
<!DOCTYPE svg PUBLIC "-//W3C//DTD SVG 20010904//EN"
 "http://www.w3.org/TR/2001/REC-SVG-20010904/DTD/svg10.dtd">
<svg version="1.0" xmlns="http://www.w3.org/2000/svg"
 width="1024.000000pt" height="1024.000000pt" viewBox="0 0 1024.000000 1024.000000"
 preserveAspectRatio="xMidYMid meet">
<metadata>
Created by potrace 1.16, written by Peter Selinger 2001-2019
</metadata>
<g transform="translate(0.000000,1024.000000) scale(0.100000,-0.100000)"
fill="#000000" stroke="none">
<path d="M4915 7766 c-404 -247 -921 -560 -1325 -804 -228 -137 -434 -261
-457 -275 -43 -26 -43 -26 -43 -1246 0 -1220 0 -1220 55 -1255 30 -20 177
-109 327 -200 150 -90 379 -228 508 -306 1291 -783 1100 -713 1422 -518 156
94 477 288 713 431 237 143 565 341 730 441 300 182 300 182 300 1406 0 1223
0 1223 -120 1296 -253 153 -1353 819 -1622 982 -155 95 -283 172 -285 171 -2
0 -93 -56 -203 -123z m256 30 c35 -24 346 -213 989 -601 731 -441 905 -547
917 -558 10 -9 13 -282 13 -1201 1 -1190 1 -1190 -207 -1316 -406 -246 -621
-375 -853 -515 -423 -255 -854 -517 -881 -536 -29 -20 36 -57 -934 531 -275
167 -626 379 -780 472 -154 94 -281 171 -283 173 -11 10 0 2381 11 2392 6 6
75 50 152 96 129 77 537 324 1383 836 183 110 350 212 370 226 45 31 58 31
103 1z"/>
<path d="M5047 7403 c-215 -421 -329 -822 -392 -1378 -15 -140 -15 -140 36
-187 195 -178 542 -207 774 -66 109 66 135 94 135 146 0 208 -83 643 -177 935
-69 215 -277 677 -304 677 -4 0 -36 -57 -72 -127z"/>
<path d="M3843 6421 c-109 -40 -214 -138 -266 -249 -65 -138 -47 -341 41 -477
156 -241 453 -319 835 -220 29 8 29 8 13 -22 -17 -34 -72 -85 -115 -108 -65
-33 -118 -37 -277 -20 -235 26 -375 -6 -475 -106 -80 -80 -111 -208 -75 -304
25 -66 48 -60 71 16 54 183 179 242 427 201 286 -48 420 -17 563 128 58 59 61
60 70 20 6 -28 1 -36 -69 -101 -91 -85 -142 -160 -233 -345 -105 -213 -145
-262 -248 -310 -195 -91 -403 87 -312 266 75 151 274 98 285 -75 5 -75 19 -83
51 -32 89 145 -35 328 -223 328 -316 0 -409 -445 -130 -630 174 -115 404 -87
567 68 71 67 123 144 206 307 57 114 135 230 176 264 65 54 126 -240 66 -321
-38 -52 -39 -102 -3 -139 30 -30 30 -30 335 -30 304 0 304 0 331 26 35 35 34
82 -1 142 -35 60 -37 157 -4 243 34 90 41 96 78 65 38 -32 115 -151 173 -266
157 -313 329 -443 566 -428 310 20 482 381 286 599 -91 101 -226 129 -342 71
-123 -61 -167 -217 -89 -316 30 -38 39 -32 39 26 0 109 63 182 157 182 179 0
211 -259 43 -347 -49 -25 -63 -28 -125 -25 -146 8 -216 73 -335 310 -106 210
-154 282 -246 366 -69 64 -74 71 -68 100 8 42 7 42 85 -33 136 -132 273 -161
533 -116 142 25 186 26 256 5 73 -22 149 -98 179 -179 35 -99 47 -109 71 -60
44 91 14 238 -66 320 -100 104 -229 133 -483 109 -172 -17 -212 -12 -289 32
-36 21 -128 121 -120 130 2 1 41 -9 88 -23 131 -40 360 -40 475 0 177 62 309
184 359 330 83 246 -14 502 -232 609 -64 31 -72 33 -182 33 -137 0 -198 -24
-276 -107 -179 -192 -68 -499 183 -501 96 -1 203 78 203 149 0 24 -23 33 -35
14 -30 -48 -160 -65 -216 -27 -152 101 -45 324 146 304 246 -25 328 -342 134
-521 -143 -133 -382 -138 -661 -15 -51 22 -101 43 -110 46 -10 3 -39 -14 -77
-46 -279 -232 -565 -236 -842 -13 -88 71 -84 70 -150 37 -299 -152 -588 -150
-733 5 -150 161 -112 405 78 491 131 60 286 -23 286 -153 0 -135 -135 -203
-253 -128 -73 46 -85 35 -47 -40 39 -76 159 -125 245 -102 276 76 280 453 6
581 -76 35 -219 41 -298 12z"/>
<path d="M4875 4458 c-2 -7 -15 -57 -29 -110 -22 -83 -45 -148 -98 -278 -9
-22 -1 -39 78 -155 120 -178 241 -426 225 -461 -16 -35 -14 -47 9 -72 44 -47
45 -39 42 265 -3 288 -3 288 -27 308 -60 49 -30 135 46 135 79 0 109 -83 49
-133 -30 -26 -30 -26 -30 -312 0 -265 1 -286 17 -283 30 6 49 53 36 87 -18 48
124 325 268 524 50 67 50 67 5 180 -24 62 -57 158 -72 215 -27 102 -27 102
-271 102 -186 0 -245 -3 -248 -12z"/>
<path d="M4407 2673 c-4 -3 -7 -123 -7 -265 0 -258 0 -258 40 -258 40 0 40 0
40 265 0 265 0 265 -33 265 -19 0 -37 -3 -40 -7z"/>
<path d="M5328 2673 c-16 -4 -18 -18 -18 -106 0 -92 -1 -99 -15 -81 -34 50
-152 59 -213 16 -69 -50 -93 -172 -51 -260 49 -101 179 -129 261 -55 17 15 18
14 18 -10 0 -25 3 -27 45 -27 45 0 45 0 45 259 0 259 0 259 -22 265 -13 3 -25
5 -28 5 -3 -1 -13 -3 -22 -6z m-63 -229 c37 -24 60 -94 45 -138 -33 -102 -160
-114 -205 -20 -51 107 64 221 160 158z"/>
<path d="M3982 2658 c-85 -29 -160 -130 -169 -228 -21 -232 234 -368 440 -234
37 24 37 24 37 134 0 110 0 110 -110 110 -110 0 -110 0 -110 -40 0 -40 0 -40
70 -40 70 0 70 0 70 -43 0 -55 -19 -74 -93 -89 -120 -25 -212 53 -212 181 0
162 159 236 298 139 25 -18 75 35 56 59 -42 49 -197 78 -277 51z"/>
<path d="M5520 2630 c0 -40 0 -40 45 -40 45 0 45 0 45 40 0 40 0 40 -45 40
-45 0 -45 0 -45 -40z"/>
<path d="M4660 2516 c-36 -13 -48 -39 -31 -65 7 -11 15 -11 41 -2 81 28 152 6
166 -51 6 -27 6 -27 -63 -21 -120 10 -193 -35 -193 -117 0 -99 141 -154 224
-89 24 19 25 19 31 -1 5 -16 15 -20 46 -20 39 0 39 0 39 133 0 157 -15 203
-73 230 -41 20 -136 21 -187 3z m173 -203 c18 -10 5 -53 -24 -77 -59 -50 -161
-23 -145 38 11 45 116 70 169 39z"/>
<path d="M5557 2522 c-37 -3 -37 -3 -35 -185 3 -182 3 -182 43 -182 40 0 40 0
43 65 1 36 -1 119 -5 185 -8 120 -8 120 -46 117z"/>
<path d="M5727 2523 c-4 -3 -7 -63 -7 -133 0 -111 3 -131 23 -170 40 -81 122
-99 202 -44 35 23 35 23 35 -2 0 -23 3 -25 43 -22 42 3 42 3 44 163 2 211 1
217 -46 213 -36 -3 -36 -3 -41 -130 -6 -144 -15 -164 -81 -174 -28 -5 -41 -1
-64 18 -28 24 -28 27 -33 156 -5 132 -5 132 -37 132 -17 0 -35 -3 -38 -7z"/>
<path d="M6234 2521 c-36 -16 -64 -60 -64 -103 0 -49 31 -80 103 -104 69 -22
97 -40 97 -64 0 -43 -76 -53 -142 -19 -42 21 -42 21 -60 -1 -22 -27 -18 -35
30 -59 115 -58 232 -20 249 81 8 50 -38 98 -120 124 -77 24 -96 45 -68 73 26
26 54 26 108 1 43 -19 43 -19 58 10 15 28 14 30 -12 47 -30 20 -145 29 -179
14z"/>
</g>
</svg>
