<?xml version="1.0" encoding="UTF-8"?>
<!-- Generated by Pixelmator Pro 3.7.1 -->
<svg width="408" height="490" viewBox="0 0 408 490" xmlns="http://www.w3.org/2000/svg">
    <path id="Path" fill="#000000" stroke="none" d="M 241.719543 467.793518 C 230.146545 474.793152 218.836548 481.524475 207.66217 488.473877 C 205.063049 490.090332 203.1203 490.263672 200.417816 488.621094 C 147.602356 456.519653 94.732361 424.507874 41.864136 392.493286 C 29.893372 385.244202 17.934845 377.972473 5.868317 370.885498 C 2.233795 368.750793 0.508514 366.288818 0.512299 361.78186 C 0.539063 329.78894 -0.180298 297.790527 0.191345 265.803833 C 0.723846 219.976379 0.494995 174.151123 0.549042 128.325317 C 0.554291 123.885681 2.160309 121.370972 5.830719 119.16272 C 64.931885 83.604736 123.975891 47.951721 183.020325 12.299622 C 188.867798 8.768799 194.702362 5.207336 200.406342 1.452637 C 202.97049 -0.235229 205.017517 -0.281982 207.693604 1.344116 C 272.619568 40.796631 337.582458 80.188354 402.587585 119.510376 C 405.939331 121.537903 407.418884 123.862427 407.414429 127.910706 C 407.328857 206.072815 407.342773 284.235168 407.492981 362.397156 C 407.501099 366.609924 405.644165 368.648682 402.395142 370.605103 C 355.440674 398.878906 308.531494 427.228027 261.621765 455.57605 C 255.063721 459.539124 248.560547 463.592896 241.719543 467.793518 M 7.262268 317.5 C 7.249786 331.329651 7.342346 345.160706 7.153687 358.987976 C 7.104309 362.609375 8.362274 364.752686 11.448608 366.616028 C 71.197235 402.687744 131.062866 438.572205 190.429657 475.263428 C 200.60025 481.549316 207.346375 481.496216 217.619629 475.128357 C 276.656128 438.534546 336.294678 402.911438 395.773132 367.032166 C 399.0177 365.074951 400.899536 363.088379 400.891663 358.862488 C 400.749939 283.047302 400.750854 207.231812 400.847473 131.416504 C 400.852417 127.536987 399.37793 125.288208 396.230469 123.395874 C 370.534302 107.946655 344.878052 92.430969 319.230347 76.901428 C 282.185913 54.471191 245.133545 32.053711 208.169067 9.492371 C 204.986755 7.550049 202.763733 7.681213 199.648987 9.605164 C 180.377289 21.509216 160.981415 33.212891 141.593597 44.928223 C 99.111847 70.598328 56.662262 96.322754 14.050354 121.775269 C 8.778534 124.924194 7.064728 128.496399 7.088593 134.543518 C 7.327881 195.194946 7.25119 255.847656 7.262268 317.5 Z"/>
    <path id="path1" fill="#000000" stroke="none" d="M 75.625366 561.098999 C 69.952515 548.080994 72.573486 535.182861 82.279053 527.184875 C 90.908905 520.073303 105.720184 519.327393 115.12677 525.530701 C 119.975311 528.728149 119.904297 529.665222 116.160736 533.857605 C 113.805817 536.494873 112.328186 535.073853 110.293549 533.748779 C 98.901459 526.329895 86.354004 531.175842 82.959381 544.235474 C 81.299255 550.622253 84.251831 558.843811 89.678406 562.945068 C 94.483307 566.576355 103.760986 566.901367 109.185516 563.932373 C 112.487366 562.125305 111.96521 559.267273 111.683136 556.52356 C 111.386078 553.633789 108.878937 554.248596 106.985474 554.110352 C 105.492554 554.001343 103.981079 553.947693 102.490143 554.049316 C 99.04361 554.284119 98.23703 552.223389 98.188629 549.36908 C 98.13858 546.416443 99.114288 544.640686 102.504456 544.738159 C 107.498688 544.881775 112.501617 544.835754 117.49826 544.737915 C 120.228119 544.684509 121.449097 545.774231 121.397888 548.556335 C 121.302856 553.719788 121.286865 558.887207 121.377167 564.050598 C 121.429138 567.020813 119.513763 568.538086 117.439667 569.977417 C 104.874512 578.697021 83.720673 577.332458 75.625366 561.098999 Z"/>
    <path id="path2" fill="#000000" stroke="none" d="M 232.306885 532.028931 C 232.306213 544.352905 232.365234 556.18158 232.249634 568.008484 C 232.228943 570.122681 233.453003 573.229919 230.288879 573.981689 C 227.184448 574.719299 223.617798 575.353149 221.985229 571.250244 C 210.673523 577.041504 202.843262 576.122009 196.694458 568.45282 C 190.357971 560.549561 190.460968 548.720337 196.931427 541.246216 C 203.153625 534.058838 211.896606 533.207458 222.013611 539.029663 C 223.438477 534.781311 222.605774 530.490845 222.638916 526.317749 C 222.667236 522.750549 223.338013 520.701111 227.564514 520.746826 C 231.876892 520.793579 232.513977 523.114014 232.322144 526.536133 C 232.229065 528.196838 232.30658 529.867126 232.306885 532.028931 M 206.895264 564.732056 C 207.639099 565.089355 208.354248 565.533447 209.131348 565.789978 C 214.559692 567.582336 219.903748 565.043518 222.063843 559.683167 C 224.355469 553.996399 222.117615 547.074768 217.153076 544.494385 C 212.245361 541.943542 206.427917 543.741882 203.3974 548.746582 C 200.164337 554.085876 201.092621 559.078796 206.895264 564.732056 Z"/>
    <path id="path3" fill="#000000" stroke="none" d="M 184.336243 568.863708 C 183.945953 573.969727 180.476563 576.233093 176.27179 573.694275 C 173.827454 572.218384 172.426331 572.898987 170.521515 573.710632 C 165.855652 575.698853 161.142365 575.87384 156.494019 573.784729 C 151.782715 571.667236 149.317993 567.746887 149.308655 562.737854 C 149.299591 557.869385 151.841187 554.257874 156.417603 552.234253 C 162.130432 549.70813 168.032227 549.985168 173.917114 551.330383 C 175.549316 543.431885 170.784393 542.009888 155.807159 545.54718 C 151.907471 539.945374 152.157532 538.980957 158.155792 536.74176 C 161.777161 535.389832 165.518188 534.663208 169.391632 534.980164 C 178.895844 535.757874 184.190308 541.391357 184.32309 550.93042 C 184.404053 556.745911 184.33606 562.563416 184.336243 568.863708 M 167.850372 567.469727 C 168.93866 567.057678 170.066345 566.726318 171.107361 566.21759 C 173.655792 564.972168 175.833557 563.047302 175.292786 560.087036 C 174.698059 556.83136 171.517517 557.415649 169.125916 557.255493 C 166.652863 557.089783 164.113129 556.851257 161.859589 558.337036 C 160.071899 559.515564 158.911835 561.054504 159.174835 563.31012 C 159.41745 565.391541 160.852264 566.597595 162.671082 567.13678 C 164.064667 567.549805 165.605957 567.464478 167.850372 567.469727 Z"/>
    <path id="path4" fill="#000000" stroke="none" d="M 289.684082 551.871704 C 289.698547 547.561157 289.776733 543.729675 289.705444 539.90094 C 289.649902 536.915649 291.073914 535.738525 293.958069 535.704224 C 296.74115 535.671082 299.082947 536.057922 299.103577 539.525452 C 299.166077 550.015869 299.282532 560.508118 299.133362 570.996216 C 299.087585 574.211609 293.428223 576.085938 290.005615 573.528137 C 287.796448 571.877197 286.538513 572.59845 284.721069 573.361816 C 273.054321 578.262634 263.904114 572.275085 263.700684 559.557983 C 263.599426 553.231262 263.772644 546.899963 263.660767 540.573608 C 263.604187 537.37738 264.462891 535.653076 268.117798 535.598816 C 271.880493 535.542969 273.180786 537.16803 273.155273 540.651306 C 273.11499 546.14624 273.148376 551.643616 273.266174 557.137451 C 273.393982 563.099243 275.712341 565.856506 280.473816 565.953369 C 285.474548 566.054993 289.225464 562.56665 289.627075 557.346375 C 289.754456 555.68988 289.670593 554.017212 289.684082 551.871704 Z"/>
    <path id="path5" fill="#000000" stroke="none" d="M 319.787964 567.092285 C 321.468628 567.227478 322.824341 567.500671 324.080505 567.258301 C 325.868591 566.91333 327.891602 566.322937 328.183411 564.179382 C 328.489075 561.934509 326.500183 561.054626 324.865173 560.350281 C 321.972595 559.104004 318.929749 558.209229 316.024048 556.990173 C 310.618896 554.722412 307.681519 550.555298 308.14563 546.072205 C 308.708252 540.637268 312.197205 537.042358 317.973267 535.578003 C 323.271912 534.23468 328.182007 535.386963 333.00116 537.466492 C 335.839111 538.691162 336.487061 540.479858 334.998413 543.417297 C 333.513428 546.347473 331.903992 546.227417 329.478455 544.75061 C 326.680359 543.047058 323.526245 542.76355 320.316345 543.227722 C 318.899597 543.432617 317.754517 544.115051 317.488037 545.627563 C 317.21521 547.176208 318.106262 548.192749 319.439758 548.730835 C 322.672119 550.034851 325.986938 551.142334 329.183167 552.526367 C 335.220337 555.140442 337.630127 558.592346 337.263733 563.754272 C 336.840332 569.719727 333.987915 572.769653 327.363586 574.592896 C 320.772644 576.406982 314.89978 574.416443 309.253235 571.298706 C 307.317383 570.229919 306.251282 568.740112 307.860779 566.425598 C 309.174133 564.536926 310.240112 562.827942 313.003418 564.348206 C 315.01825 565.456787 317.271545 566.131836 319.787964 567.092285 Z"/>
    <path id="path6" fill="#000000" stroke="none" d="M 140.380371 573.407959 C 132.212738 575.205688 131.734375 574.827698 131.724091 567.042969 C 131.706024 553.395203 131.779236 539.746521 131.634613 526.100159 C 131.595551 522.41394 132.565826 520.610657 136.657776 520.636108 C 140.840637 520.662109 141.144867 523.055969 141.112244 526.161072 C 140.947968 541.78949 140.815979 557.418213 140.380371 573.407959 Z"/>
    <path id="path7" fill="#000000" stroke="none" d="M 243.725708 560.988892 C 243.716675 553.838928 243.780884 547.186279 243.667419 540.53656 C 243.615234 537.481934 244.642517 535.910156 247.925903 535.840698 C 251.140625 535.772644 253.090759 536.776672 253.104614 540.258667 C 253.145081 550.401611 253.142456 560.544922 253.245117 570.687195 C 253.278931 574.03064 251.257385 574.374268 248.660217 574.362671 C 245.929138 574.350525 243.612732 574.108398 243.737671 570.46582 C 243.840271 567.476624 243.737915 564.480408 243.725708 560.988892 Z"/>
    <path id="path8" fill="#000000" stroke="none" d="M 249.981689 531.096252 C 244.858643 531.699463 242.983948 530.077698 243.517822 524.99115 C 244.017395 520.231384 247.050476 521.037659 249.917175 521.052612 C 251.696106 521.061829 253.442017 521.727417 253.218933 523.872375 C 252.949402 526.464233 255.194275 530.190857 249.981689 531.096252 Z"/>
    <path id="path9" fill="#000000" stroke="none" d="M 104.002167 322.816895 C 102.762421 323.936646 101.842407 325.015198 100.163391 324.27417 C 99.009888 322.139038 99.845398 319.7771 99.687195 317.512573 C 99.235535 311.047913 96.738892 305.78595 90.531891 303.206055 C 85.284668 301.025085 79.926605 301.360718 75.502106 305.226746 C 70.677246 309.442566 68.89743 314.759277 69.98822 321.349426 C 73.029297 339.722656 94.973572 343.989441 109.518188 331.844727 C 114.297455 327.854004 117.956085 322.867371 120.75647 317.301392 C 124.424713 310.010681 127.924469 302.634216 131.656128 295.376526 C 137.349121 284.30426 144.427856 274.325439 154.523712 266.720459 C 157.917572 264.163879 157.787598 263.991333 155.832947 259.849609 C 153.939636 259.975525 153.081421 261.583252 151.994507 262.730896 C 138.43219 277.05072 121.838806 281.472107 102.780975 277.910461 C 95.0979 276.474548 87.413788 274.588562 79.603943 274.591858 C 65.543732 274.597778 56.263824 282.220215 51.602661 296.626343 C 50.877594 298.867493 51.166077 302.442322 48.029877 302.429077 C 44.638367 302.414856 44.062164 298.755676 43.23056 296.170532 C 39.475922 284.498962 44.860016 270.427124 55.804901 262.975891 C 67.322388 255.134766 80.19928 253.785278 93.620117 255.214966 C 101.561676 256.060913 109.471008 257.434326 117.502838 256.734253 C 127.093048 255.898315 133.413696 250.300659 139.262451 241.794678 C 131.906647 243.307129 125.812134 244.897339 119.616608 245.773193 C 97.995117 248.829895 77.797791 245.232849 61.500885 229.84729 C 35.590759 205.386169 39.833588 161.615356 74.735962 146.97113 C 97.237915 137.529785 122.643921 150.478027 126.902527 173.380737 C 130.704651 193.828796 111.927399 211.953003 92.849487 206.196777 C 86.990173 204.428955 82.55838 200.785156 79.865723 195.24353 C 78.859741 193.173218 77.911469 190.953979 79.366882 188.65918 C 81.328979 188.069824 82.579224 189.302917 83.932526 190.233154 C 91.980286 195.765137 99.092743 196.179199 105.098297 191.461914 C 110.194061 187.459229 112.044525 179.778503 109.474915 173.295532 C 106.830475 166.623779 98.743469 161.706299 90.812561 162.454712 C 74.756561 163.96991 64.756653 176.783081 65.951813 192.5271 C 67.278809 210.007324 79.93869 221.692139 97.517975 223.780029 C 115.823486 225.954224 132.439667 220.526855 148.424133 212.613708 C 153.14563 210.276245 156.198578 210.370789 160.262573 214.096191 C 171.792755 224.665527 185.033356 231.997681 201.117126 233.118896 C 211.963928 233.875 221.867126 230.930176 231.283691 225.945618 C 237.784668 222.504395 243.913696 218.443726 249.166931 213.263062 C 252.123474 210.347229 254.813721 210.190186 258.515808 212.049316 C 274.646545 220.149597 291.388428 225.610718 309.88855 223.773926 C 327.204895 222.054688 341.122742 209.302979 342.358276 192.079224 C 343.065125 182.227051 339.513428 173.263123 330.839111 167.409058 C 323.374817 162.371704 315.274048 160.599365 306.751953 164.731934 C 298.178894 168.889221 294.851196 179.185181 299.315186 187.136353 C 303.770996 195.073059 313.451477 197.035522 321.941772 191.846802 C 323.962463 190.611938 325.396118 188.006042 328.631287 188.770569 C 330.351563 192.636353 328.595215 195.743286 326.240784 198.631287 C 315.607239 211.674805 294.648132 209.400879 285.461548 194.236267 C 273.5 174.490967 286.184998 148.695862 309.79187 144.760254 C 335.328308 140.50293 358.496582 158.272339 362.525696 183.933838 C 366.504211 209.273315 351.172852 238.078613 315.994019 245.279297 C 301.781616 248.188416 287.871277 246.82605 274.082703 242.804504 C 272.562378 242.361084 271.13623 241.300903 268.816467 241.819458 C 274.68103 250.067566 281.222595 256.439209 291.790039 256.873779 C 299.984985 257.210815 308.054077 255.846436 316.17627 255.179871 C 331.645264 253.9104 346.400146 255.63623 357.567444 267.837036 C 365.529114 276.535645 368.288513 286.851196 363.971252 298.353943 C 363.29364 300.159424 362.853088 302.722046 360.507324 302.791809 C 358.016235 302.865784 357.689575 300.211121 357.134033 298.411987 C 355.747314 293.920837 354.011169 289.644104 351.225647 285.815613 C 345.055176 277.334778 336.442871 274.391357 326.364075 274.803345 C 317.852966 275.151245 309.573792 277.181946 301.188782 278.434937 C 283.344299 281.101624 268.321411 275.942627 256.075134 262.673462 C 255.080017 261.595215 254.183105 260.310303 252.326599 259.886353 C 250.123291 262.498413 250.339905 264.613342 253.300171 266.705811 C 265.129395 275.067322 272.242798 287.063965 278.526245 299.694214 C 282.677551 308.038818 286.252502 316.699036 291.681274 324.357788 C 300.145447 336.298767 312.263672 341.240051 323.993713 337.629272 C 332.607239 334.977722 337.175049 328.773621 338.515625 320.253723 C 340.015259 310.723206 333.410828 302.496033 324.430603 302.05835 C 315.312988 301.614014 308.118835 309.386658 308.553772 319.231323 C 308.582947 319.893005 308.765015 320.546509 308.84613 321.207458 C 309.010864 322.548523 309.229614 324.030212 307.772705 324.75 C 305.993469 325.629028 305.044373 324.098145 304.045532 323.052917 C 296.498901 315.15564 298.866943 300.044739 308.79834 292.59729 C 323.770386 281.369812 345.99707 287.948608 353.304749 305.770569 C 362.980103 329.36676 346.332275 356.003479 320.446838 358.31543 C 297.921387 360.327332 282.181824 349.4552 270.656982 331.391174 C 265.564148 323.40863 261.556885 314.738098 256.953186 306.437439 C 253.555969 300.311951 249.879456 294.368286 244.893555 289.339539 C 242.618958 287.045349 240.86853 287.264893 239.578857 290.18396 C 235.077026 300.373352 232.280762 310.453613 238.984192 321.048279 C 243.89563 328.81073 239.411011 336.331909 230.172791 336.378906 C 212.842285 336.467102 195.510742 336.468018 178.180176 336.386353 C 169.295166 336.344482 164.476288 328.209412 169.44104 320.825317 C 176.458954 310.387451 173.383179 300.553589 169.048767 290.530151 C 167.400726 286.718994 165.297821 287.055603 162.712402 289.80365 C 155.646759 297.31366 150.803802 306.22583 146.364075 315.390198 C 142.143494 324.102295 137.667877 332.623657 131.377716 340.096313 C 114.601196 360.026611 87.255371 364.495972 67.872589 350.380371 C 51.124481 338.183472 46.983643 314.869751 58.757629 299.060669 C 69.53595 284.588257 90.988342 282.863586 102.430603 295.549438 C 109.550598 303.443237 110.2565 313.95343 104.002167 322.816895 Z"/>
    <path id="path10" fill="#000000" stroke="none" d="M 163.838928 141.144348 C 170.691803 106.01355 182.600769 73.149292 199.451813 42.070557 C 200.676727 39.81134 201.362518 37.071472 203.992493 35.965332 C 205.711182 36.384888 206.034607 37.806274 206.661865 38.923279 C 228.648315 78.076294 242.69696 119.943848 249.113159 164.342651 C 250.679199 175.179199 252.214966 186.052368 252.520752 197.051758 C 252.608154 200.194458 251.70874 202.454346 249.449402 204.504578 C 238.717651 214.243225 226.002075 219.710144 211.746887 221.170044 C 193.06665 223.083069 176.232178 218.032837 161.217682 206.623291 C 156.704559 203.193787 155.366241 199.41748 156.053955 193.765747 C 158.179962 176.293701 160.565979 158.873535 163.838928 141.144348 Z"/>
    <path id="path11" fill="#000000" stroke="none" d="M 196.655029 443.30249 C 197.725494 440.837524 196.559387 439.075623 195.79129 437.265137 C 188.411041 419.868958 179.216156 403.506592 167.632477 388.553833 C 165.640961 385.983032 165.278839 383.795166 166.62674 380.825684 C 171.726929 369.589355 175.566071 357.900513 178.278137 345.867493 C 178.931885 342.966919 180.098328 341.610535 183.238373 341.633301 C 197.223969 341.734863 211.211243 341.710205 225.19696 341.608337 C 228.213379 341.586365 229.65332 342.711121 230.332092 345.700745 C 233.026123 357.565369 236.750671 369.12677 241.858826 380.171631 C 243.50708 383.735535 242.917053 386.253235 240.671021 389.228943 C 229.496521 404.033875 220.175293 419.938416 212.900208 437.027466 C 211.831238 439.538452 211.293884 441.791443 212.135193 444.648499 C 213.4328 449.054993 211.28717 451.922913 206.509705 453.287292 C 205.121399 451.945068 205.659973 450.193054 205.658264 448.612427 C 205.641479 432.62793 205.71582 416.643372 205.663879 400.659119 C 205.653687 397.528625 206.034607 395.04187 208.936218 392.92218 C 212.489136 390.32666 212.703674 385.726013 210.127319 382.784912 C 207.468079 379.748962 202.228088 379.344666 199.28418 381.948181 C 196.334656 384.556702 196.034332 389.807556 199.325897 392.6073 C 201.993866 394.876587 202.402405 397.380493 202.432587 400.487549 C 202.586243 416.298523 202.877808 432.108093 203.067444 447.918762 C 203.088501 449.672729 203.659485 451.590149 202.221893 453.116699 C 196.756866 452.27533 195.056335 449.420715 196.655029 443.30249 Z"/>
</svg>
